<svg width="38" height="46" viewBox="0 0 38 46" fill="none" xmlns="http://www.w3.org/2000/svg">
<g clip-path="url(#clip0_2_17)">
<path d="M19.0662 38.8372C19.0517 38.857 19.0373 38.8767 19.0212 38.8986C18.7616 38.4528 18.417 38.0962 18.0009 37.8124C17.1584 37.238 16.2153 36.8969 15.2231 36.6835C14.5455 36.5378 13.8655 36.4014 13.1832 36.2796C12.8242 36.2154 12.4576 36.1929 12.0948 36.1492C11.6757 36.0987 11.2574 36.0416 10.8379 35.9952C10.5755 35.9662 10.3109 35.9555 10.048 35.9297C9.66314 35.892 9.27906 35.8462 8.89426 35.8075C8.64716 35.7826 8.39909 35.7672 8.15199 35.7424C7.76742 35.7036 7.38339 35.6597 6.99898 35.6194C6.68601 35.5865 6.37202 35.562 6.05996 35.5224C5.70347 35.4771 5.3467 35.4293 4.9935 35.3642C4.48124 35.2698 3.96879 35.1724 3.4624 35.0517C2.78438 34.89 2.1239 34.6712 1.50568 34.3449C0.996677 34.0762 0.550207 33.7312 0.220118 33.2546C0.157182 33.1637 0.108257 33.0633 0.0422141 32.9636C0.0315608 31.6354 0.0315608 30.311 0.0315609 28.9718C0.143142 29.0936 0.244111 29.2406 0.368548 29.3644C0.61551 29.6101 0.855711 29.8689 1.13378 30.0762C1.87175 30.6261 2.72112 30.957 3.60147 31.2028C4.17839 31.3639 4.7673 31.4838 5.35285 31.6132C5.72104 31.6946 6.09164 31.767 6.46356 31.8294C6.7825 31.883 7.10508 31.915 7.4256 31.9597C7.78149 32.0093 8.13634 32.0665 8.49265 32.1129C8.78429 32.1508 9.07781 32.1744 9.36976 32.2102C9.75736 32.2577 10.144 32.3125 10.5315 32.3612C10.8126 32.3965 11.0949 32.4224 11.3756 32.4606C11.7871 32.5166 12.1981 32.5774 12.6085 32.6406C12.9375 32.6914 13.2669 32.7413 13.5934 32.805C14.1094 32.9057 14.6262 33.0052 15.1371 33.1277C15.8293 33.2937 16.5042 33.5191 17.1456 33.8271C17.7428 34.1138 18.2833 34.4862 18.723 34.9857C18.8329 35.1105 18.9166 35.258 19.0222 35.414C19.0317 36.52 19.0308 37.607 19.0324 38.6941C19.0324 38.7418 19.0544 38.7895 19.0662 38.8372Z" fill="#005695"/>
<path d="M18.6045 46.0313C18.4426 46.0208 18.2957 46.0083 18.1484 46.0006C17.978 45.9916 17.8336 45.8866 17.8339 45.7485C17.8342 45.6004 17.8533 45.4521 17.8675 45.3042C17.8777 45.1981 17.8933 45.0924 17.9069 44.9827C17.5438 44.9236 17.2006 44.8685 16.8577 44.8114C16.7644 44.7959 16.7434 44.8557 16.7279 44.9241C16.6853 45.1115 16.6437 45.2992 16.6006 45.4865C16.5556 45.6823 16.431 45.7649 16.2386 45.7103C15.7984 45.5852 15.3599 45.454 14.9217 45.3222C14.8048 45.287 14.6919 45.2392 14.5763 45.1997C14.3813 45.1331 14.312 45.0055 14.3794 44.8094C14.4417 44.6281 14.5059 44.4464 14.5866 44.2728C14.6346 44.1697 14.6069 44.132 14.5133 44.0897C14.2764 43.9829 14.0437 43.867 13.8098 43.7536C13.7507 43.7249 13.6936 43.6922 13.6097 43.6476C13.5149 43.8041 13.417 43.9668 13.318 44.1288C13.2887 44.1767 13.257 44.2231 13.2257 44.2698C13.1293 44.4135 12.9641 44.4584 12.8259 44.3663C12.3559 44.053 11.8794 43.748 11.4246 43.414C11.1834 43.2369 11.1726 43.1199 11.3923 42.8585C11.5208 42.7057 11.6467 42.5507 11.7682 42.4034C11.4865 42.1435 11.2128 41.891 10.9305 41.6306C10.7598 41.7785 10.5871 41.9366 10.405 42.0832C10.2105 42.2399 10.0705 42.2145 9.91991 42.0259C9.69313 41.7419 9.45532 41.4665 9.23041 41.1811C9.09549 41.0099 8.97037 40.8303 8.85211 40.6473C8.78431 40.5424 8.84283 40.3761 8.95255 40.2999C9.14847 40.1637 9.34325 40.026 9.54404 39.885C9.35982 39.5644 9.17044 39.2347 8.97877 38.9011C8.77426 38.9954 8.57206 39.0894 8.36919 39.1819C8.13636 39.2882 8.01337 39.248 7.91406 39.0036C7.72052 38.5274 7.53956 38.0462 7.35345 37.567C7.3353 37.5203 7.31464 37.4742 7.30019 37.4264C7.24448 37.2419 7.34095 37.0793 7.53455 37.0273C7.70172 36.9824 7.8715 36.9448 8.0345 36.888C8.10079 36.865 8.15219 36.7999 8.21036 36.754C8.20422 36.7387 8.19807 36.7235 8.19193 36.7082C8.50186 36.7308 8.81238 36.7482 9.12111 36.7816C9.16744 36.7867 9.22728 36.8603 9.24397 36.9136C9.44577 37.5577 9.69258 38.1855 10.0408 38.7637C10.349 39.2755 10.6833 39.7753 11.0467 40.2499C11.3343 40.6256 11.6665 40.9725 12.0091 41.3013C12.5523 41.8227 13.1587 42.2685 13.8106 42.6509C14.5459 43.0823 15.3191 43.4331 16.1443 43.6543C16.6259 43.7834 17.1195 43.8697 17.6096 43.9662C18.2909 44.1005 18.983 44.081 19.6696 44.0523C20.1503 44.0321 20.6322 43.9516 21.1048 43.8555C21.5426 43.7664 21.9744 43.6376 22.3989 43.4968C23.4075 43.1625 24.3332 42.6667 25.1737 42.0212C25.4707 41.7932 25.7496 41.5417 26.0328 41.2963C26.6774 40.7378 27.2023 40.0762 27.6608 39.3664C28.1416 38.622 28.5251 37.8265 28.7807 36.9766C28.8281 36.8188 28.9102 36.775 29.0679 36.7705C29.3358 36.7628 29.6029 36.7267 29.8918 36.7007C29.824 36.8896 29.9305 36.9086 30.0626 36.9355C30.2352 36.9707 30.403 37.0317 30.5703 37.0891C30.7164 37.1392 30.7938 37.3163 30.7283 37.4879C30.527 38.0159 30.3214 38.5424 30.1057 39.0648C30.0194 39.2739 29.8822 39.3104 29.6731 39.2149C29.4694 39.1219 29.2658 39.0291 29.0588 38.9347C28.8676 39.2638 28.6757 39.5939 28.4833 39.9252C28.6782 40.0507 28.8803 40.1789 29.0802 40.3104C29.2023 40.3907 29.2438 40.5874 29.1543 40.7064C28.891 41.057 28.6233 41.4043 28.3533 41.7498C28.2494 41.8828 28.1371 42.0095 28.0243 42.1353C27.9281 42.2425 27.7659 42.2445 27.6523 42.1424C27.5099 42.0145 27.3709 41.8828 27.2285 41.755C27.1882 41.7189 27.141 41.6904 27.1013 41.6615C26.8186 41.9164 26.542 42.1657 26.2639 42.4164C26.4149 42.6102 26.569 42.7987 26.7125 42.9949C26.8172 43.138 26.7889 43.2824 26.6405 43.385C26.1664 43.7127 25.6884 44.0351 25.2147 44.3634C25.0226 44.4965 24.8396 44.4133 24.7479 44.2366C24.6457 44.0399 24.5288 43.8506 24.4304 43.6792C24.0943 43.8312 23.7663 43.9776 23.4413 44.1306C23.4205 44.1404 23.4077 44.2062 23.4185 44.2363C23.4894 44.4348 23.5724 44.6291 23.6422 44.8279C23.7039 45.0038 23.65 45.1463 23.4815 45.2004C22.9253 45.3794 22.367 45.5525 21.8054 45.7142C21.591 45.7759 21.4775 45.6937 21.4204 45.4758C21.363 45.2568 21.312 45.0362 21.2577 44.8141C20.8782 44.8696 20.5036 44.9245 20.1275 44.9796C20.1408 45.2392 20.1597 45.5026 20.1655 45.7663C20.1684 45.9031 20.056 45.9928 19.8948 45.9993C19.7584 46.0048 19.6218 46.0044 19.4794 46.0189C19.1887 46.0313 18.904 46.0313 18.6045 46.0313Z" fill="#005695"/>
<path d="M19.0526 0.031271C19.1962 0.251668 19.3266 0.473704 19.4628 0.69217C19.9598 1.48924 20.3331 2.33708 20.5472 3.25198C20.6691 3.77286 20.7061 4.30259 20.6679 4.83153C20.6037 5.7207 20.2966 6.53808 19.8478 7.30599C19.5066 7.88994 19.1019 8.42796 18.6495 8.93127C18.3725 9.23948 18.1048 9.55714 17.8123 9.85029C16.8103 10.8543 15.7992 11.8494 14.7814 12.8383C14.7884 12.7121 14.7253 12.6939 14.6237 12.6944C13.938 12.6977 13.2523 12.6955 12.5666 12.6965C12.3284 12.6968 12.0856 12.667 11.8634 12.7887C11.9745 12.6437 12.0801 12.4941 12.1978 12.3545C12.5452 11.9424 12.8954 11.5326 13.2482 11.1251C13.535 10.7939 13.8376 10.4756 14.1147 10.1368C14.6141 9.52646 15.1159 8.91697 15.5858 8.28458C15.9823 7.75096 16.3634 7.20173 16.6995 6.62952C17.0583 6.01862 17.3788 5.38278 17.674 4.73895C17.9259 4.18968 18.1541 3.62421 18.3281 3.04678C18.5449 2.32716 18.7009 1.5892 18.8713 0.856436C18.9321 0.594637 18.9581 0.324871 19 0.0450059C19.014 0.0312708 19.0281 0.0312708 19.0526 0.031271Z" fill="#F80015"/>
<path d="M38.0316 32.914C37.8634 33.1629 37.7146 33.4144 37.5227 33.6279C37.1715 34.0188 36.7136 34.2693 36.2413 34.4899C35.6246 34.7779 34.9745 34.9723 34.3106 35.1135C33.7301 35.2371 33.1438 35.3365 32.5571 35.4276C32.0585 35.5051 31.5561 35.5583 31.0547 35.6172C30.6653 35.663 30.275 35.7011 29.8714 35.728C29.8785 35.5887 29.9169 35.464 29.9175 35.3391C29.9225 34.3522 29.923 33.3652 29.916 32.3783C29.9153 32.2792 29.856 32.1804 29.8238 32.0815C30.0037 32.0512 30.1829 32.0164 30.3636 31.9916C30.6951 31.9461 31.0284 31.9127 31.3592 31.863C31.729 31.8075 32.1009 31.7568 32.4648 31.6734C33.2098 31.5026 33.9554 31.3306 34.6905 31.1234C35.4492 30.9095 36.1748 30.6055 36.8195 30.1442C37.0698 29.9652 37.3143 29.7714 37.5297 29.5535C37.7132 29.3678 37.8514 29.1381 38.0206 28.9268C38.0316 30.2504 38.0316 31.5748 38.0316 32.914Z" fill="#005695"/>
<path d="M18.6232 27.0143C19.0308 27.026 19.439 27.0566 19.846 27.0452C20.4892 27.0273 21.1226 26.9356 21.7442 26.755C22.4937 26.5374 23.1819 26.1961 23.7846 25.7163C24.1934 25.3908 24.5452 24.9925 24.9078 24.613C25.3277 24.1735 25.6082 23.6413 25.8682 23.1006C26.141 22.5334 26.324 21.9362 26.4502 21.3203C26.5875 20.6507 26.6394 19.9739 26.6014 19.2945C26.5694 18.7212 26.4534 18.158 26.3054 17.6016C26.1081 16.8597 25.8181 16.1553 25.4539 15.4798C25.3963 15.3729 25.3224 15.2744 25.2672 15.1665C25.225 15.084 25.1947 15.0986 25.1272 15.1432C24.5452 15.5269 23.9533 15.896 23.3767 16.2873C22.5337 16.8593 21.6875 17.4284 20.8683 18.0327C20.3158 18.4403 19.8506 18.9436 19.4349 19.4954C19.0686 19.9815 18.7676 20.5008 18.514 21.0473C18.2492 21.6178 18.0476 22.2117 17.958 22.8379C17.9408 22.9579 17.914 23.0765 17.8963 23.1965C17.885 23.273 17.9085 23.3196 18.001 23.333C18.2338 23.3666 18.4633 23.4327 18.6968 23.4494C19.2745 23.4908 19.8423 23.4291 20.3924 23.2361C20.9706 23.0332 21.5015 22.7546 21.9178 22.2968C22.3693 21.8001 22.6887 21.2283 22.8806 20.5872C22.883 20.5791 22.876 20.5683 22.8719 20.5536C21.8433 20.6227 20.907 20.9725 19.989 21.4589C20.087 21.2569 20.1748 21.0492 20.2852 20.8541C20.5978 20.3012 20.9928 19.8056 21.4786 19.3981C21.9234 19.025 22.4039 18.6921 22.8812 18.359C23.4056 17.993 23.9455 17.6489 24.4758 17.291C24.5885 17.2149 24.5972 17.3032 24.6163 17.3665C24.7024 17.6511 24.8125 17.9323 24.8608 18.2233C24.9386 18.6916 25.02 19.1669 25.018 19.6389C25.0147 20.4308 24.8447 21.2014 24.5474 21.9406C24.3422 22.4507 24.0655 22.9224 23.7224 23.3505C23.4154 23.7337 23.0533 24.0669 22.6498 24.3523C22.0974 24.7431 21.4947 25.0353 20.8405 25.2109C20.4977 25.3029 20.1457 25.3682 19.794 25.4192C19.5022 25.4616 19.2042 25.4871 18.9098 25.4813C18.3849 25.4708 17.8606 25.4138 17.3605 25.2482C16.9329 25.1067 16.5165 24.9316 16.0975 24.7655C16.0042 24.7285 15.9256 24.6543 15.8319 24.6191C15.5843 24.5262 15.6331 24.2992 15.6309 24.1302C15.6234 23.5772 15.6819 23.0282 15.7733 22.48C15.8852 21.809 16.0622 21.1574 16.3242 20.5339C16.6348 19.795 17.0376 19.1018 17.5235 18.4588C17.9598 17.8815 18.4361 17.3384 18.9662 16.8442C19.454 16.3894 19.9657 15.9635 20.5173 15.5832C21.4269 14.9561 22.3272 14.3157 23.2278 13.676C23.6433 13.3809 24.0621 13.0885 24.4579 12.7688C24.8229 12.474 25.16 12.1452 25.5069 11.8287C25.5581 11.782 25.5954 11.7201 25.6553 11.6448C25.9047 11.9909 26.1605 12.3136 26.3806 12.6587C26.7619 13.2567 27.1268 13.8653 27.4879 14.4757C27.8519 15.0908 28.14 15.7436 28.3664 16.4181C28.544 16.947 28.6769 17.4915 28.8094 18.034C28.8611 18.2459 28.8679 18.4707 28.8765 18.6903C28.8944 19.1461 28.9237 19.6033 28.9034 20.058C28.8841 20.4894 28.8353 20.9239 28.7491 21.3469C28.6405 21.8796 28.5035 22.4092 28.3375 22.9271C28.1128 23.628 27.7639 24.2754 27.3719 24.8989C27.0704 25.3784 26.7154 25.8164 26.3389 26.2406C25.8715 26.7671 25.3488 27.229 24.7597 27.6127C24.3139 27.9032 23.8613 28.1885 23.3888 28.4328C22.7655 28.7551 22.1006 28.9824 21.4152 29.1454C21.3759 29.1548 21.3369 29.1655 21.2836 29.1627C21.1131 29.0233 20.9604 28.892 20.7998 28.771C20.0937 28.2396 19.3844 27.7123 18.6805 27.1781C18.6419 27.1488 18.6414 27.07 18.6232 27.0143Z" fill="#005695"/>
<path d="M11.5156 21.793C11.6048 21.3256 11.6677 20.8513 11.789 20.3922C12.0255 19.4972 12.3748 18.6417 12.815 17.8253C13.1636 17.1787 13.5552 16.5583 14.0024 15.9726C14.3923 15.4619 14.7875 14.9559 15.2577 14.5141C15.7068 14.0921 16.1607 13.6751 16.6167 13.2605C16.8801 13.021 17.1521 12.791 17.4194 12.5558C17.8993 12.1334 18.3906 11.7227 18.8547 11.284C19.3138 10.85 19.7672 10.4063 20.1824 9.93196C20.5714 9.48758 20.9259 9.01018 21.2613 8.52408C21.6472 7.96473 21.9563 7.35947 22.2248 6.73502C22.2942 6.57364 22.3773 6.41804 22.4609 6.24566C22.5862 6.46947 22.7157 6.68061 22.8256 6.90132C23.1122 7.47676 23.4161 8.04573 23.6651 8.63708C23.9714 9.3642 24.0038 10.1125 23.6318 10.8339C23.4425 11.201 23.1797 11.5192 22.8479 11.7783C22.2709 12.2289 21.7018 12.6895 21.1239 13.139C20.7369 13.4401 20.3362 13.7239 19.9496 14.0255C19.59 14.3061 19.2311 14.5891 18.8896 14.8907C18.3383 15.3774 17.7839 15.8628 17.2629 16.3804C16.6051 17.0341 16.0421 17.7655 15.555 18.5563C15.0869 19.3162 14.6959 20.1083 14.4556 20.9663C14.3386 21.3844 14.2444 21.8112 14.1773 22.2398C14.1171 22.6238 14.109 23.0158 14.076 23.4041C14.0701 23.4744 14.0552 23.5441 14.0306 23.6274C13.9694 23.6207 13.9155 23.6093 13.8758 23.5793C13.0881 22.9852 12.302 22.3889 11.5156 21.793Z" fill="#005694"/>
<path d="M19.0307 33.9242C18.8874 33.8201 18.7436 33.7166 18.6009 33.6117C18.1688 33.2941 17.6956 33.0496 17.2057 32.8331C16.4249 32.4879 15.607 32.2581 14.7758 32.0743C14.3047 31.9701 13.8286 31.888 13.3533 31.8039C12.9127 31.7259 12.471 31.6524 12.0282 31.5882C11.6704 31.5364 11.3099 31.5039 10.9511 31.4581C10.5727 31.4099 10.1955 31.3529 9.81695 31.3058C9.51916 31.2687 9.21973 31.2446 8.92192 31.2077C8.56378 31.1633 8.20645 31.1123 7.849 31.0626C7.53259 31.0187 7.21626 30.974 6.9003 30.927C6.55392 30.8755 6.20526 30.8343 5.86249 30.7649C5.30486 30.652 4.74961 30.5263 4.19653 30.393C3.90335 30.3223 3.61578 30.2278 3.32785 30.1373C3.1915 30.0945 3.09365 30.0071 3.09351 29.8511C3.0927 28.9246 3.09311 27.9981 3.09311 27.0523C3.25583 27.1961 3.40234 27.3309 3.55461 27.459C3.98319 27.8195 4.47553 28.0676 4.99627 28.2704C5.63478 28.519 6.30098 28.6635 6.96973 28.7939C7.36386 28.8707 7.76646 28.9053 8.16549 28.957C8.57503 29.0102 8.98415 29.0676 9.39476 29.111C9.77639 29.1514 10.1603 29.1701 10.5422 29.2089C10.9894 29.2542 11.4356 29.3101 11.8821 29.3629C12.3179 29.4144 12.7553 29.4568 13.1888 29.5233C13.6456 29.5933 14.1028 29.6697 14.5523 29.7747C15.0952 29.9016 15.6367 30.0419 16.1673 30.2118C17.0117 30.4821 17.8031 30.8695 18.5358 31.3682C18.7013 31.4809 18.8535 31.6129 19.0216 31.755C19.0311 32.4908 19.0309 33.2075 19.0307 33.9242Z" fill="#EFB600"/>
<path d="M11.5038 21.7998C12.302 22.3889 13.0881 22.9852 13.8758 23.5793C13.9155 23.6093 13.9694 23.6207 14.0282 23.641C14.0519 23.6953 14.0706 23.7488 14.0755 23.8035C14.1193 24.2929 14.1541 24.7833 14.2096 25.2713C14.2182 25.3475 14.3044 25.4332 14.3772 25.481C14.7082 25.6983 15.0314 25.9366 15.3875 26.105C15.8338 26.3161 16.3018 26.4904 16.7745 26.6357C17.1919 26.7641 17.6275 26.8359 18.0572 26.9224C18.2384 26.959 18.425 26.9693 18.6162 27.0029C18.6414 27.07 18.6419 27.1488 18.6805 27.1781C19.3844 27.7123 20.0937 28.2396 20.7998 28.771C20.9604 28.892 21.1131 29.0233 21.2709 29.1603C21.0848 29.2142 20.8988 29.2657 20.7096 29.2994C19.963 29.4327 19.2079 29.4536 18.4536 29.4203C18.0445 29.4022 17.638 29.3239 17.2306 29.2711C16.7026 29.2028 16.1988 29.0449 15.6994 28.8681C15.0306 28.6314 14.3984 28.3245 13.7965 27.9497C13.2381 27.6019 12.7181 27.21 12.2447 26.7549C12.1037 26.6193 12.0153 26.4665 11.9489 26.2819C11.7514 25.733 11.6205 25.1684 11.5233 24.5967C11.405 23.9012 11.413 23.1972 11.4281 22.4948C11.433 22.265 11.4699 22.036 11.5038 21.7998Z" fill="#004F88"/>
<path d="M29.8098 32.0828C29.856 32.1804 29.9154 32.2792 29.916 32.3783C29.923 33.3652 29.9225 34.3522 29.9175 35.3391C29.9169 35.464 29.8785 35.5887 29.8573 35.7257C29.6998 35.7603 29.5431 35.7896 29.3851 35.8039C28.9939 35.8394 28.6019 35.8664 28.2105 35.9003C28.0731 35.9122 27.9366 35.9344 27.7868 35.9411C27.7846 35.7807 27.8038 35.6312 27.8042 35.4816C27.8071 34.581 27.8051 33.6804 27.8062 32.7798C27.8064 32.6256 27.8211 32.4698 27.7108 32.3398C28.0684 32.2958 28.4259 32.2519 28.7835 32.208C29.1209 32.1666 29.4584 32.1254 29.8098 32.0828Z" fill="#005089"/>
<path d="M27.6983 32.3375C27.8211 32.4698 27.8064 32.6256 27.8062 32.7798C27.8051 33.6804 27.8071 34.581 27.8042 35.4816C27.8038 35.6312 27.7846 35.7807 27.7739 35.9433C27.2651 36.01 26.7565 36.0646 26.2477 36.1166C26.1034 36.1313 25.9582 36.1384 25.8013 36.1354C25.8196 36.0342 25.8759 35.9469 25.8764 35.8593C25.8827 34.8709 25.8755 33.8824 25.8853 32.8941C25.8869 32.7318 25.8381 32.6405 25.6916 32.5901C26.0664 32.5379 26.4406 32.4821 26.816 32.4347C27.0504 32.4052 27.2864 32.3883 27.5427 32.3631C27.5731 32.356 27.5799 32.3492 27.5845 32.34C27.6182 32.3384 27.652 32.3369 27.6983 32.3375Z" fill="#004B7F"/>
<path d="M19.0752 38.8316C19.0544 38.7895 19.0324 38.7418 19.0324 38.6941C19.0308 37.607 19.0317 36.52 19.0325 35.4186C19.4719 34.7053 20.1048 34.2295 20.861 33.8672C21.0315 33.8647 21.02 33.9711 21.0193 34.0639C21.0109 35.1355 21.0011 36.2071 20.9917 37.2788C20.9917 37.2788 20.9882 37.2758 20.9808 37.2768C20.9574 37.2854 20.9415 37.2929 20.9256 37.3005C20.5672 37.5204 20.1963 37.7233 19.8539 37.9654C19.5356 38.1905 19.272 38.4788 19.0752 38.8316Z" fill="#013A5E"/>
<path d="M25.6789 32.592C25.8381 32.6405 25.8869 32.7318 25.8853 32.8941C25.8755 33.8824 25.8827 34.8709 25.8764 35.8593C25.8759 35.9469 25.8196 36.0342 25.7874 36.133C25.7856 36.1443 25.7719 36.149 25.7525 36.1495C25.6877 36.1585 25.6423 36.1669 25.5969 36.1753C25.1113 36.2498 24.6257 36.3243 24.1345 36.3882C24.155 36.3034 24.2039 36.2293 24.2042 36.1549C24.2093 35.1447 24.2078 34.1345 24.2075 33.1242C24.2075 32.9187 24.1915 32.903 23.9843 32.8962C24.2477 32.8446 24.5105 32.7897 24.7748 32.7423C25.0712 32.6893 25.369 32.6431 25.6789 32.592Z" fill="#014676"/>
<path d="M11.8535 12.7927C12.0856 12.667 12.3284 12.6968 12.5666 12.6965C13.2523 12.6955 13.938 12.6977 14.6237 12.6944C14.7253 12.6939 14.7884 12.7121 14.7716 12.8424C14.5131 13.137 14.2474 13.4121 13.997 13.7001C13.6915 14.0514 13.399 14.4137 13.1003 14.7708C13.0771 14.7986 13.0498 14.8232 13.0139 14.8405C12.9973 14.7118 12.9071 14.7291 12.8299 14.7291C12.1463 14.7285 11.4626 14.726 10.7791 14.7315C10.6667 14.7324 10.5547 14.7699 10.4425 14.7904C10.6888 14.4074 10.9246 14.0173 11.1847 13.6438C11.3888 13.3507 11.6229 13.0783 11.8535 12.7927Z" fill="#E20214"/>
<path d="M11.0478 18.0788C10.8899 18.504 10.7032 18.9214 10.5814 19.3565C10.425 19.9155 10.3077 20.4863 10.1988 21.0567C10.131 21.4116 10.0881 21.7744 10.0732 22.1352C10.0523 22.641 10.0679 23.1481 10.0679 23.6547C10.0467 23.6585 10.0255 23.6623 10.0042 23.6661C9.94172 23.5226 9.87386 23.3811 9.81764 23.2352C9.56633 22.5829 9.37522 21.9126 9.25449 21.2256C9.19531 20.8888 9.179 20.544 9.15488 20.2021C9.1349 19.9187 9.11151 19.6331 9.12644 19.3505C9.14634 18.9738 9.20191 18.5989 9.25539 18.2025C9.27166 18.1343 9.2747 18.0869 9.27773 18.0395C9.27773 18.0395 9.27961 18.0253 9.29009 18.0099C9.3494 17.9692 9.39799 17.9223 9.44711 17.9218C9.93507 17.9163 10.4231 17.9181 10.9112 17.919C10.9515 17.919 10.9918 17.9268 11.0387 17.9316C11.0421 17.9869 11.0449 18.0328 11.0478 18.0788Z" fill="#B40513"/>
<path d="M21.0033 37.2768C21.0011 36.2071 21.0109 35.1355 21.0193 34.0639C21.02 33.9711 21.0315 33.8647 20.8726 33.8662C21.333 33.6788 21.8062 33.4914 22.28 33.3056C22.3217 33.2892 22.3678 33.2836 22.4351 33.2726C22.4836 33.2637 22.509 33.2553 22.5344 33.2469C22.5344 33.2469 22.5484 33.2419 22.5679 33.2433C22.612 33.3186 22.6576 33.3924 22.6579 33.4665C22.6628 34.4241 22.6634 35.3818 22.6584 36.3395C22.6578 36.4648 22.6201 36.5898 22.5995 36.715C22.5995 36.715 22.5983 36.7126 22.5885 36.7129C22.5541 36.7235 22.5294 36.7338 22.5048 36.7442C22.0768 36.8898 21.6484 37.0345 21.2211 37.1821C21.1501 37.2066 21.0834 37.2437 21.0033 37.2768Z" fill="#013F66"/>
<path d="M22.6126 36.7138C22.6201 36.5898 22.6578 36.4648 22.6584 36.3395C22.6634 35.3818 22.6628 34.4241 22.6579 33.4665C22.6576 33.3924 22.612 33.3186 22.5753 33.2424C22.8694 33.1574 23.1746 33.0712 23.4819 32.9933C23.6386 32.9536 23.7991 32.9288 23.9711 32.8968C24.1915 32.903 24.2075 32.9187 24.2075 33.1242C24.2078 34.1345 24.2093 35.1447 24.2042 36.1549C24.2039 36.2293 24.1551 36.3034 24.1212 36.3859C23.7614 36.4688 23.409 36.5431 23.0567 36.6181C22.9128 36.6488 22.7693 36.6811 22.6126 36.7138Z" fill="#01426E"/>
<path d="M10.4325 14.7953C10.5547 14.7699 10.6667 14.7324 10.7791 14.7315C11.4626 14.726 12.1463 14.7285 12.8299 14.7291C12.9071 14.7291 12.9973 14.7118 13.0039 14.8447C13.0045 14.8576 13.0029 14.8719 12.9946 14.8828C12.9789 14.901 12.9747 14.9097 12.9736 14.9199C12.9736 14.9199 12.9728 14.9173 12.9669 14.9197C12.9516 14.9264 12.9447 14.9333 12.9403 14.9426C12.6565 15.3491 12.3709 15.7545 12.0899 16.1629C12.0158 16.2706 11.9556 16.3876 11.8783 16.493C11.8581 16.3674 11.7681 16.3866 11.692 16.3865C11.0337 16.3855 10.3754 16.3854 9.71711 16.385C9.81939 16.1233 9.91212 15.8574 10.0265 15.6011C10.1478 15.3294 10.2896 15.0668 10.4325 14.7953Z" fill="#D20314"/>
<path d="M33.5814 28.0555C34.0797 27.7802 34.5597 27.4803 34.9605 27.0335C34.9645 27.1041 34.9697 27.1527 34.9697 27.2014C34.9702 28.0392 34.9703 28.8769 34.97 29.7146C34.9699 30.0013 34.9297 30.0582 34.6481 30.147C34.3122 30.2529 33.9746 30.3538 33.6237 30.4432C33.5897 30.3345 33.552 30.2393 33.5527 30.1445C33.5579 29.4481 33.5709 28.7518 33.5814 28.0555Z" fill="#ECB400"/>
<path d="M27.1759 31.4313C26.9956 31.4613 26.8159 31.4947 26.635 31.5205C26.3244 31.5649 26.0131 31.6048 25.702 31.6458C25.6762 31.6492 25.6495 31.646 25.6094 31.6307C25.5853 31.5599 25.5656 31.5043 25.5663 31.4488C25.5745 30.7763 25.5858 30.1039 25.5963 29.4315C25.9671 29.388 26.3381 29.3455 26.7088 29.3007C26.8554 29.283 27.0014 29.26 27.1591 29.2542C27.1613 29.3353 27.1443 29.4015 27.1441 29.4678C27.142 30.0353 27.1415 30.6029 27.1443 31.1704C27.1448 31.2574 27.1649 31.3443 27.1759 31.4313Z" fill="#C49301"/>
<path d="M25.5827 29.4293C25.5858 30.1039 25.5745 30.7763 25.5663 31.4488C25.5656 31.5043 25.5853 31.5599 25.5959 31.6284C25.4328 31.6741 25.2701 31.7106 25.1059 31.7391C24.7899 31.7939 24.4731 31.8445 24.1565 31.8959C24.131 31.9 24.1044 31.897 24.0596 31.8865C24.0333 31.8145 24.0195 31.7534 24.0193 31.6923C24.0176 31.1459 24.0179 30.5995 24.0185 30.0531C24.0187 29.9121 23.9909 29.7638 24.1129 29.6503C24.5983 29.5759 25.0838 29.5015 25.5827 29.4293Z" fill="#BC8D01"/>
<path d="M9.70656 16.3906C10.3754 16.3854 11.0337 16.3855 11.692 16.3865C11.7681 16.3866 11.8581 16.3674 11.8686 16.4982C11.8697 16.5107 11.869 16.5125 11.8615 16.5149C11.8456 16.5218 11.8395 16.5285 11.8357 16.5373C11.5801 17.0477 11.3245 17.5582 11.0583 18.0737C11.0449 18.0328 11.0421 17.9869 11.0387 17.9316C10.9918 17.9268 10.9515 17.919 10.9112 17.919C10.4231 17.9181 9.93507 17.9163 9.44711 17.9218C9.39799 17.9223 9.3494 17.9692 9.29251 18.0032C9.33418 17.766 9.37361 17.5176 9.43626 17.2752C9.51264 16.9796 9.60855 16.6889 9.70656 16.3906Z" fill="#C30414"/>
<path d="M19.0417 33.9236C19.0309 33.2075 19.0311 32.4908 19.0314 31.7598C19.4521 31.3922 19.9089 31.0926 20.4087 30.8527C20.4092 30.9255 20.3903 30.9866 20.3901 31.0477C20.3878 31.6416 20.387 32.2356 20.3915 32.8296C20.3919 32.8847 20.4318 32.9395 20.4534 32.9945C20.1188 33.2016 19.7814 33.4044 19.451 33.6177C19.3108 33.7082 19.185 33.8206 19.0417 33.9236Z" fill="#A27801"/>
<path d="M31.0564 28.806C31.2355 28.7678 31.415 28.7316 31.5935 28.6909C31.837 28.6354 32.0796 28.5765 32.3361 28.5327C32.3499 29.1813 32.349 29.8162 32.352 30.4512C32.3524 30.5381 32.3724 30.625 32.3834 30.7119C31.962 30.7838 31.5406 30.8557 31.0953 30.921C31.056 30.8503 31.0278 30.7864 31.027 30.7222C31.0227 30.3579 31.021 29.9935 31.0262 29.6292C31.0302 29.3547 31.0459 29.0804 31.0564 28.806Z" fill="#DFA900"/>
<path d="M27.1899 31.4298C27.1649 31.3443 27.1448 31.2574 27.1443 31.1704C27.1415 30.6029 27.142 30.0353 27.1441 29.4678C27.1443 29.4015 27.1613 29.3353 27.1724 29.2564C27.6072 29.2006 28.0401 29.1575 28.4861 29.1294C28.489 29.2054 28.4699 29.2662 28.4698 29.3271C28.4683 29.9764 28.4698 30.6257 28.4705 31.275C28.2799 31.3044 28.09 31.3391 27.8986 31.3619C27.6677 31.3893 27.4356 31.4066 27.1899 31.4298Z" fill="#CB9900"/>
<path d="M24.1001 29.6485C23.9909 29.7638 24.0187 29.9121 24.0185 30.0531C24.0179 30.5995 24.0176 31.1459 24.0193 31.6923C24.0195 31.7534 24.0333 31.8145 24.0461 31.8879C23.6754 31.9826 23.2993 32.0649 22.9234 32.1482C22.8988 32.1536 22.8757 32.1662 22.8345 32.1607C22.7968 32.0878 22.7584 32.0296 22.7589 31.9717C22.7646 31.2992 22.7761 30.6267 22.7861 29.9542C23.1858 29.8616 23.5856 29.7691 23.9853 29.6761C24.0197 29.6681 24.0533 29.6566 24.1001 29.6485Z" fill="#B48701"/>
<path d="M31.0429 28.8038C31.0459 29.0804 31.0302 29.3547 31.0262 29.6292C31.021 29.9935 31.0227 30.3579 31.027 30.7222C31.0278 30.7864 31.056 30.8503 31.0815 30.9216C30.9382 30.957 30.7856 30.9912 30.6311 31.0119C30.3415 31.0506 30.0507 31.0814 29.7459 31.1023C29.7313 30.3906 29.7311 29.6921 29.7309 28.9936C30.1637 28.9297 30.5966 28.8657 31.0429 28.8038Z" fill="#D8A400"/>
<path d="M32.3968 30.7105C32.3724 30.625 32.3524 30.5381 32.352 30.4512C32.349 29.8162 32.3499 29.1813 32.349 28.5315C32.3483 28.5167 32.3491 28.5183 32.3553 28.516C32.3706 28.5093 32.3772 28.5025 32.3814 28.4932C32.7737 28.3459 33.1659 28.1985 33.5698 28.0533C33.5709 28.7518 33.5579 29.4481 33.5527 30.1445C33.552 30.2393 33.5897 30.3345 33.6113 30.4412C33.212 30.5383 32.8111 30.6236 32.3968 30.7105Z" fill="#E6AE00"/>
<path d="M29.7171 28.9915C29.7311 29.6921 29.7313 30.3906 29.7319 31.1039C29.5524 31.1482 29.3731 31.1836 29.1921 31.2055C28.9616 31.2334 28.7297 31.2503 28.4844 31.2734C28.4698 30.6257 28.4683 29.9764 28.4698 29.3271C28.4699 29.2662 28.489 29.2054 28.4996 29.1316C28.8595 29.0758 29.2191 29.0325 29.5788 28.9906C29.6198 28.9859 29.6618 28.9895 29.7171 28.9915Z" fill="#D29E00"/>
<path d="M20.4651 32.9929C20.4318 32.9395 20.3919 32.8847 20.3915 32.8296C20.387 32.2356 20.3878 31.6416 20.3901 31.0477C20.3903 30.9866 20.4092 30.9255 20.4198 30.8516C20.8122 30.6625 21.2043 30.4863 21.6076 30.3215C21.6086 30.4195 21.5898 30.5062 21.5894 30.5929C21.5867 31.158 21.5869 31.7231 21.5894 32.2882C21.5898 32.3645 21.609 32.4407 21.6195 32.5169C21.2386 32.675 20.8577 32.8332 20.4651 32.9929Z" fill="#A87D01"/>
<path d="M21.6316 32.5189C21.609 32.4407 21.5898 32.3645 21.5894 32.2882C21.5869 31.7231 21.5867 31.158 21.5894 30.5929C21.5898 30.5062 21.6086 30.4195 21.6192 30.3199C21.9998 30.1905 22.38 30.074 22.7731 29.9558C22.7761 30.6267 22.7646 31.2992 22.7589 31.9717C22.7584 32.0296 22.7968 32.0878 22.8206 32.1593C22.4307 32.2889 22.0372 32.4049 21.6316 32.5189Z" fill="#AE8201"/>
<path d="M9.26661 18.0453C9.2747 18.0869 9.27166 18.1343 9.26077 18.1905C9.25377 18.1499 9.25462 18.1005 9.26661 18.0453Z" fill="#C30414"/>
<path d="M22.5234 33.2447C22.509 33.2553 22.4836 33.2637 22.4477 33.2718C22.4622 33.2618 22.4873 33.2521 22.5234 33.2447Z" fill="#01426E"/>
<path d="M12.9487 14.9439C12.9447 14.9333 12.9516 14.9264 12.9682 14.9201C12.9693 14.9272 12.9632 14.9363 12.9487 14.9439Z" fill="#E20214"/>
<path d="M32.3732 28.4925C32.3772 28.5025 32.3706 28.5093 32.3544 28.5159C32.3533 28.5092 32.3592 28.5005 32.3732 28.4925Z" fill="#DFA900"/>
<path d="M27.5761 32.3387C27.5799 32.3492 27.5731 32.356 27.5567 32.3625C27.5556 32.3555 27.5617 32.3465 27.5761 32.3387Z" fill="#005089"/>
<path d="M12.9817 14.9173C12.9747 14.9097 12.9789 14.901 12.9924 14.8896C12.9956 14.8952 12.9927 14.9049 12.9817 14.9173Z" fill="#E20214"/>
<path d="M11.8438 16.5388C11.8395 16.5285 11.8456 16.5218 11.8607 16.5154C11.8622 16.5225 11.857 16.5314 11.8438 16.5388Z" fill="#D20314"/>
<path d="M19.5995 40.7464C19.434 40.757 19.2836 40.7805 19.1343 40.7755C18.7655 40.7633 18.3969 40.7407 18.0287 40.7169C17.7703 40.7001 17.5124 40.677 17.2547 40.6517C17.0911 40.6356 16.9275 40.6147 16.7659 40.5848C16.7373 40.5796 16.7076 40.5227 16.6976 40.4848C16.5716 40.0056 16.438 39.528 16.3296 39.0448C16.2478 38.6801 16.1997 38.3081 16.1333 37.9206C16.7823 38.1687 17.3953 38.4367 17.8705 38.9297C18.0141 39.0787 18.1186 39.2643 18.2429 39.4317C18.562 39.8617 19.1347 39.9828 19.584 39.6397C19.7599 39.5052 19.8856 39.3023 20.0216 39.1214C20.2547 38.8114 20.551 38.575 20.8885 38.3934C21.2093 38.2209 21.5438 38.0735 21.9105 37.8966C21.8833 38.1118 21.8725 38.2873 21.8372 38.4578C21.7388 38.9336 21.6326 39.4079 21.5245 39.8816C21.4763 40.0933 21.4201 40.3035 21.3579 40.5115C21.3478 40.5452 21.2899 40.5822 21.2501 40.5873C20.8107 40.6436 20.3708 40.6962 19.9304 40.7442C19.8265 40.7556 19.7203 40.7462 19.5995 40.7464Z" fill="#005695"/>
<path d="M23.6105 39.9657C23.033 40.1447 22.4682 40.3228 21.8839 40.507C22.0766 39.5612 22.2597 38.6624 22.4455 37.7508C23.4354 37.4667 24.4745 37.286 25.5355 37.15C25.3287 37.9362 25.0763 38.6897 24.7087 39.4009C24.6687 39.4782 24.5868 39.5511 24.5066 39.5882C24.2162 39.7225 23.9182 39.8406 23.6105 39.9657Z" fill="#005695"/>
<path d="M13.2485 37.245C13.534 37.2973 13.8062 37.3447 14.0766 37.4012C14.4905 37.4877 14.8999 37.6001 15.3171 37.6642C15.6264 37.7117 15.6645 37.8915 15.6937 38.1486C15.7395 38.551 15.8255 38.9499 15.9117 39.3466C15.9919 39.716 16.0945 40.0806 16.193 40.4701C15.9867 40.4249 15.7876 40.3915 15.5945 40.3372C14.8887 40.1387 14.1982 39.8991 13.5314 39.5921C13.3304 39.4995 13.2819 39.3151 13.2148 39.1513C13.0218 38.6799 12.8498 38.1997 12.6783 37.7199C12.6142 37.5407 12.5744 37.353 12.5178 37.1485C12.7706 37.1823 13.0025 37.2133 13.2485 37.245Z" fill="#005695"/>
<path d="M20.8626 41.8387C20.6723 42.1693 20.4974 42.4968 20.2916 42.8039C20.0632 43.1448 19.7681 43.4266 19.3622 43.5511C18.9914 43.6648 18.633 43.5993 18.3237 43.3707C17.8075 42.9889 17.4754 42.4668 17.2259 41.8874C17.114 41.6276 16.9975 41.3697 16.8662 41.0726C18.3118 41.2809 19.723 41.2882 21.1809 41.0707C21.0638 41.3502 20.964 41.5885 20.8626 41.8387Z" fill="#005695"/>
<path d="M22.7012 42.7238C23.0332 42.4048 23.3738 42.109 23.6758 41.7785C23.957 41.4708 24.2087 41.1344 24.4515 40.7953C24.6277 40.5492 24.7633 40.2749 24.9271 40.0196C24.9852 39.9292 25.0605 39.8383 25.1497 39.7806C25.5804 39.502 26.0345 39.2563 26.4497 38.9574C26.9101 38.6259 27.3367 38.2492 27.6955 37.8045C27.8573 37.6039 28.0296 37.4117 28.2269 37.181C27.6715 38.7166 26.8007 39.9982 25.6265 41.0696C24.6738 41.9389 23.584 42.6003 22.3405 43.0012C22.458 42.9114 22.5755 42.8215 22.7012 42.7238Z" fill="#005594"/>
<path d="M11.4973 40.0832C11.2239 39.7093 10.9468 39.3512 10.6965 38.9755C10.3875 38.5116 10.1531 38.0071 9.94191 37.4927C9.90632 37.406 9.8768 37.3168 9.8681 37.2147C9.94438 37.3122 10.0175 37.4124 10.0976 37.5068C10.2836 37.7259 10.4581 37.9573 10.6638 38.1568C11.1897 38.6668 11.7615 39.1221 12.3978 39.493C12.5991 39.6104 12.8126 39.7104 13.0003 39.8458C13.0911 39.9113 13.142 40.0366 13.1996 40.141C13.4981 40.6821 13.8508 41.1848 14.2512 41.6574C14.6716 42.1536 15.1448 42.5905 15.6732 42.9704C15.6894 42.9821 15.7009 43.0001 15.7025 43.0395C15.452 42.9348 15.1997 42.8342 14.9514 42.7248C14.2327 42.4082 13.5605 42.0065 12.9551 41.5152C12.5019 41.1474 12.1064 40.7097 11.6872 40.3011C11.6211 40.2366 11.5657 40.1614 11.4973 40.0832Z" fill="#005594"/>
<path d="M17.0333 43.1945C16.4828 42.9738 16.0007 42.6665 15.5595 42.2937C15.4103 42.1676 15.2539 42.0488 15.1142 41.9131C14.6301 41.4429 14.2253 40.9091 13.8564 40.3475C13.8325 40.311 13.8102 40.2734 13.7813 40.2272C14.1766 40.3625 14.5538 40.5069 14.9403 40.6199C15.3841 40.7496 15.8365 40.8499 16.2837 40.9682C16.3218 40.9783 16.3635 41.0222 16.3793 41.0602C16.5339 41.4322 16.6563 41.8201 16.8413 42.1762C17.0594 42.5963 17.3305 42.9894 17.5809 43.3978C17.4135 43.3367 17.2285 43.2692 17.0333 43.1945Z" fill="#005594"/>
<path d="M23.3341 41.5038C22.8667 41.981 22.3954 42.4357 21.8265 42.7781C21.3868 43.0427 20.9291 43.2659 20.4035 43.4096C21.0397 42.6875 21.4003 41.8513 21.6951 40.9759C22.5617 40.8213 23.4082 40.5695 24.2682 40.2059C23.9945 40.6897 23.6727 41.0958 23.3341 41.5038Z" fill="#005694"/>
<path d="M10.5773 36.9313C10.9502 36.9715 11.31 37.0521 11.6666 37.0401C11.9979 37.029 12.047 37.2061 12.1211 37.4483C12.2829 37.977 12.4752 38.4966 12.6536 39.0204C12.6615 39.0436 12.6546 39.0718 12.6546 39.0988C11.9266 38.7612 10.4496 37.4126 10.2549 36.8918C10.3658 36.906 10.4643 36.9187 10.5773 36.9313Z" fill="#005594"/>
<path d="M26.1535 38.6119C25.895 38.7871 25.6461 38.9558 25.3723 39.1414C25.5248 38.7129 25.6699 38.3223 25.802 37.9274C25.8801 37.6939 25.9571 37.4569 25.997 37.2154C26.0191 37.0813 26.1021 37.0739 26.184 37.06C26.3656 37.029 26.55 37.0136 26.7335 36.9941C27.0359 36.9619 27.3385 36.9307 27.6411 36.9009C27.6923 36.8959 27.7444 36.9002 27.8368 36.9002C27.7013 37.075 27.595 37.2332 27.4674 37.3722C27.2248 37.6364 26.9769 37.8966 26.7179 38.1448C26.5449 38.3106 26.3489 38.4528 26.1535 38.6119Z" fill="#005594"/>
<path d="M25.6092 36.1777C25.6423 36.1669 25.6877 36.1584 25.7453 36.1504C25.7122 36.1605 25.6668 36.1703 25.6092 36.1777Z" fill="#004B7F"/>
<path d="M22.5157 36.7438C22.5294 36.7338 22.5541 36.7235 22.5896 36.7136C22.5759 36.7238 22.5513 36.7336 22.5157 36.7438Z" fill="#01426E"/>
<path d="M20.9357 37.3032C20.9415 37.2929 20.9574 37.2854 20.9826 37.2782C20.9765 37.2876 20.9611 37.2968 20.9357 37.3032Z" fill="#013F66"/>
</g>
<defs>
<clipPath id="clip0_2_17">
<rect width="38" height="46" fill="white"/>
</clipPath>
</defs>
</svg>
